<svg width="200" height="61" viewBox="0 0 200 61" fill="none" xmlns="http://www.w3.org/2000/svg">
<path d="M0 36.6767H24.9527V60.9298H22.353V39.1981H0V36.6699V36.6767ZM35.1972 60.9298V35.4228L32.6045 34.1553V60.9298H35.1972ZM40.3195 37.1264L37.7268 36.5745V60.9298H40.3195V37.1264ZM30.0749 60.9298V31.6748H0V34.203H27.4752V60.9298H30.0749ZM27.9097 29.2079L26.8656 28.0426L26.1159 26.6797H0V29.2011H27.9097V29.2079ZM24.7705 24.2128L24.0768 22.9521L23.8806 21.6914H0V24.2196H24.7635L24.7705 24.2128Z" fill="#7A7674"/>
<path d="M62.6652 39.0885H46.3525C39.2542 39.0885 33.235 36.8873 28.9606 32.7236C24.8754 28.7507 22.6261 23.2309 22.4369 16.723L22.4229 14.5423C22.4229 11.319 22.4229 2.82805 22.4229 0H25.0155V15.8167C25.0155 22.0384 27.0126 27.272 30.7965 30.945C34.5804 34.6249 39.9549 36.5671 46.3525 36.5671H62.6652V39.0885ZM48.3075 31.5992C46.3875 31.5992 44.4465 31.4493 42.5545 31.1358C39.5765 30.6384 36.5704 29.5412 34.3982 27.4355C34.209 27.2515 34.0268 27.0607 33.8586 26.8699C31.6864 24.4235 30.7474 21.1184 30.376 17.9701C30.2149 16.6276 30.1238 15.2715 30.1168 13.9222C30.1168 13.8677 30.1168 13.8132 30.1168 13.7586V0.0136292H27.5241V13.9222C27.5241 15.2579 27.6152 16.6003 27.7623 17.9292C28.1127 21.1729 28.9536 24.4303 30.8385 27.1766C31.343 27.9125 31.9246 28.6008 32.5623 29.2278C34.8396 31.4425 37.8807 32.6896 40.9709 33.4051C43.3394 33.9571 45.876 34.1343 48.3075 34.1343H62.6652V31.606H48.3075V31.5992ZM46.3525 21.6772C44.005 21.6772 42.4985 21.2751 41.6156 20.4165C40.7327 19.5579 40.3193 18.0927 40.3193 15.8098V0.0136292H37.7196V15.8167C37.7196 18.8151 38.3712 20.8458 39.7727 22.2087C41.1741 23.5716 43.2623 24.2122 46.3454 24.2122H62.6582V21.684H46.3454L46.3525 21.6772ZM50.2625 26.6382C50.0312 26.6382 49.8 26.6382 49.5618 26.6314C47.0882 26.5769 44.6147 26.5701 42.1972 26.0453C41.6226 25.9227 41.062 25.7659 40.5084 25.5547C39.5835 25.2003 38.7076 24.6143 37.9999 23.926C37.4113 23.3536 36.8086 22.5154 36.4653 21.7862C36.15 21.1184 35.8767 20.4369 35.7155 19.7214C35.5403 18.9514 35.4212 18.1813 35.3231 17.4044C35.1059 15.5781 35.211 13.8609 35.211 12.0209V0.0136292H32.6113V10.7602L32.6323 13.0159C32.6604 14.1062 32.7094 15.2033 32.7795 16.2937C32.8145 16.8457 32.8636 17.3908 32.9267 17.936C33.1158 19.442 33.3961 20.9548 33.9707 22.3859C34.4682 23.6194 35.19 24.771 36.157 25.7114C37.0329 26.5632 38.091 27.2311 39.2261 27.7013C40.6556 28.2942 42.2883 28.6008 43.8229 28.8121C44.923 28.9688 46.0371 29.0165 47.1443 29.071C48.1743 29.1187 49.2114 29.1664 50.2414 29.1664H62.6512V26.6382H50.2414H50.2625Z" fill="#DA3923"/>
<path d="M168.804 21.4188V24.3763L174.718 24.3491V39.4706H177.864V24.3491H183.624V21.412H168.797L168.804 21.4188ZM68.6148 21.3711V39.4706H71.8241V24.5262H75.3698C77.6681 24.5262 79.1817 25.2759 79.1817 27.9063V39.4706H82.377V26.1413C82.9726 25.4121 84.6123 24.6421 86.308 24.6217C88.4803 24.6217 90.162 25.7597 90.12 27.6882V39.4774H93.3152V27.6882C93.4974 23.9675 90.3372 21.3779 86.5953 21.3779C84.7524 21.337 82.2579 21.6982 80.9685 23.0884C79.6302 21.7868 78.1516 21.3779 74.8793 21.3779H68.6218L68.6148 21.3711ZM103.413 36.7857C100.785 36.6767 99.3134 35.7635 98.949 33.0172C98.935 32.8469 98.9701 31.7293 98.9701 31.5521C99.6988 31.5521 110.203 31.5521 111.107 31.5521C111.107 30.9797 111.1 29.6644 111.057 28.7377C110.966 26.9454 110.511 25.1668 109.313 23.7766C107.974 22.1888 106.166 21.4461 103.413 21.3915C103.272 21.3915 103.02 21.4052 102.831 21.412C99.3625 21.521 95.8659 23.6403 95.8659 28.4242V31.8656C95.8659 38.0396 99.9581 39.6546 103.504 39.6546C108.269 39.6546 110.525 37.031 110.896 34.3529C110.896 34.3529 108.794 34.3529 107.792 34.3529C106.923 36.295 105.606 36.7175 103.413 36.7857ZM99.0051 28.063V28.0766C99.1032 26.2094 100.61 24.6217 103.265 24.5262C104.071 24.5126 105.62 24.5944 106.727 25.6711C107.526 26.7069 107.736 27.3952 107.848 28.5537C107.848 28.5537 100 28.5537 98.9911 28.5537C98.9911 28.3833 98.9911 28.5332 99.0051 28.0766V28.063ZM196.826 30.3323V36.5131C196.826 36.5131 194.801 36.4995 192.775 36.4995C192.313 36.4995 191.809 36.4995 191.416 36.4654C190.435 36.3768 188.676 35.9475 188.725 33.8418C188.767 32.3085 189.846 31.409 191.717 31.15L196.833 30.3391L196.826 30.3323ZM191.178 28.3833C187.38 28.9489 185.572 30.857 185.572 34.0598C185.572 36.479 186.623 38.0532 188.851 38.9459C189.643 39.2662 190.757 39.4161 191.837 39.4502C192.152 39.4638 192.159 39.4434 192.53 39.4434C195.691 39.4434 198.718 39.4434 200 39.4434V26.9659C200 23.5177 197.695 21.3711 193.609 21.3711H192.775L187.849 21.3984C187.849 21.3984 187.849 24.1037 187.849 24.5399C188.908 24.5399 189.706 24.5331 192.551 24.5126H193.651C196.475 24.5876 196.636 25.8278 196.749 26.9999V27.5247L191.178 28.3765V28.3833ZM122.549 21.3779H114.4V39.4774C117.21 39.4638 120.65 39.4774 121.722 39.4774C121.996 39.4774 122.325 39.4638 122.591 39.4502C127.573 39.1231 130.72 36.3291 130.671 30.6526C130.671 23.9811 127.02 21.4733 122.556 21.3779H122.549ZM122.577 36.3427C122.283 36.3496 122.136 36.37 121.947 36.37H117.595V24.5399C117.595 24.5399 119.032 24.5262 121.211 24.5399C121.624 24.5399 122.087 24.5399 122.549 24.5876C124.771 24.7511 127.461 25.5144 127.503 30.7071C127.461 35.048 124.799 36.3018 122.577 36.3496V36.3427ZM151.552 21.3847V39.4774H154.705V24.4922C154.705 24.4922 157.536 24.4445 160.073 24.4922C162.841 24.4922 163.366 25.9709 163.366 28.4855V39.4774H166.562V26.7069C166.562 23.1906 163.92 21.3847 160.437 21.3847H151.545H151.552ZM144.538 30.3391V36.5199C144.538 36.5199 142.513 36.5063 140.488 36.5063C140.025 36.5063 139.521 36.5063 139.128 36.4722C138.147 36.3836 136.389 35.9543 136.438 33.8486C136.48 32.3153 137.559 31.4158 139.43 31.1568L144.545 30.3459L144.538 30.3391ZM138.89 28.3901C135.092 28.9557 133.277 30.8638 133.277 34.0667C133.277 36.4858 134.328 38.06 136.557 38.9527C137.349 39.273 138.463 39.4229 139.542 39.457C139.857 39.4706 139.864 39.4502 140.235 39.4502C143.396 39.4502 146.423 39.4502 147.705 39.4502V26.9727C147.705 23.5245 145.4 21.3779 141.315 21.3779H140.481L135.555 21.4052C135.555 21.4052 135.555 24.1106 135.555 24.5467C136.613 24.5467 137.412 24.5399 140.257 24.5194H141.357C144.181 24.5944 144.342 25.8346 144.454 27.0068V27.5315L138.883 28.3833L138.89 28.3901Z" fill="#7A7674"/>
</svg>
